<svg id="Layer_5" enable-background="new 0 0 64 64" height="512" viewBox="0 0 64 64" width="512" xmlns="http://www.w3.org/2000/svg"><g><g><g><path d="m26 16v3h1c1.657 0 3 1.343 3 3h1v-6z" fill="#f0bc5e"/></g><g><path d="m11 19h1v-3h-5v6h1c0-1.657 1.343-3 3-3z" fill="#f0bc5e"/></g></g><g><path d="m16 2.419v9.581h6v-9.581c-.954-.271-1.959-.419-3-.419s-2.046.148-3 .419z" fill="#f0bc5e"/></g><g><path d="m41 23v6h8v4h2v-4-6z" fill="#f0bc5e"/></g><g><path d="m38 35h4v10h-4z" fill="#f0bc5e"/></g><g><path d="m49 40h4v4h-4z" fill="#f0bc5e"/></g><g><path d="m59.477 47 3.451-8.628-1.857-.743-3.748 9.371h-.323v-12h-2v-16h-4v-4h-2v4h-2v-6h-2v6h-2v-4h-2v4h-4v12h-4v5.129c-2.357-2.894-5.574-5.002-9.225-5.968l-.454-1.361c1.458-.403 2.656-1.434 3.255-2.8h.424c2.206 0 4-1.794 4-4s-1.794-4-4-4v-1h4c1.103 0 2-.897 2-2v-2c0-1.103-.897-2-2-2h-.174c-.957-5.76-5.883-10-11.826-10s-10.869 4.24-11.826 10h-.174c-1.103 0-2 .897-2 2v2c0 1.103.897 2 2 2h4v1c-2.206 0-4 1.794-4 4s1.794 4 4 4h.424c.6 1.366 1.797 2.398 3.255 2.8l-.454 1.361c-7.815 2.061-13.225 9.047-13.225 17.181v.658c0 4.264 2.444 7.961 6 9.786v5.214h30v-8h3.101c.465 2.279 2.484 4 4.899 4s4.434-1.721 4.899-4h5.019c4.015 0 7.409-2.875 8.069-6.835l.194-1.165zm-12.477 0v-10h8v10zm-8-26h14v14h-6v-4h-8zm6 12v14h-10v-14zm-12 6.676v7.324h-.323l-3.749-9.372-1.857.743 3.452 8.629h-3.703l.194 1.165c.265 1.59.976 3.001 1.986 4.125v8.71h-5v-2c1.654 0 3-1.346 3-3s-1.346-3-3-3v-20.673c3.813 1.212 7.038 3.828 9 7.349zm-11.721-10.676.617 1.852-2.896 4.345-2.897-4.345.618-1.852zm.721 10.149-1.762-2.203 1.762-2.643zm-6 0v-4.846l1.762 2.643zm0 3.201 3-3.75 3 3.75v8.826c-.314-.111-.649-.176-1-.176h-1.171c-.801 0-1.555.312-2.122.879l-1.026 1.026-.681-.152zm2 12.064 1.121-1.121c.189-.189.441-.293.708-.293h1.171c.551 0 1 .449 1 1v1h2c.551 0 1 .449 1 1s-.449 1-1 1h-6zm4 4.586v2h-6v-2zm7-37c0 1.103-.897 2-2 2v-4c1.103 0 2 .897 2 2zm-10-19c4.838 0 8.869 3.371 9.796 8h-19.592c.927-4.629 4.958-8 9.796-8zm-12.001 10h.001 24v2h-24zm2.001 9c0-1.103.897-2 2-2v4c-1.103 0-2-.897-2-2zm4 2v-7h12v7c0 1.654-1.346 3-3 3h-6c-1.654 0-3-1.346-3-3zm-10 24v-.658c0-6.96 4.464-12.968 11-15.029v19.997l-1.085-.241c-2.305-.513-3.915-2.52-3.915-4.882v-4.187h-2v4.187c0 3.306 2.254 6.116 5.481 6.833l3.519.782v2.198h-4c-4.962 0-9-4.038-9-9zm6 10.574c.955.271 1.959.426 3 .426h2v2h-5zm22 2.426v-7.086c1.183.68 2.55 1.068 4 1.083v6.003zm14-4c-1.654 0-3-1.346-3-3 0-.551.449-1 1-1h4c.551 0 1 .449 1 1 0 1.654-1.346 3-3 3zm9.917-4h-5.102c-.414-1.161-1.514-2-2.816-2h-4c-1.302 0-2.402.839-2.816 2h-5.102c-2.624 0-4.896-1.625-5.785-4h31.404c-.887 2.375-3.158 4-5.783 4z"/><path d="m45 23h2v2h-2z"/><path d="m41 23h2v2h-2z"/><path d="m49 23h2v2h-2z"/><path d="m49 27h2v2h-2z"/><path d="m41 27h2v2h-2z"/><path d="m45 27h2v2h-2z"/><path d="m49 31h2v2h-2z"/><path d="m37 35h2v10h-2z"/><path d="m41 35h2v10h-2z"/><path d="m49 39h4v2h-4z"/><path d="m49 43h4v2h-4z"/></g></g></svg>